<?xml version="1.0" encoding="utf-8"?>
<!-- Generator: Adobe Illustrator 15.0.0, SVG Export Plug-In . SVG Version: 6.00 Build 0)  -->
<!DOCTYPE svg PUBLIC "-//W3C//DTD SVG 1.0//EN" "http://www.w3.org/TR/2001/REC-SVG-20010904/DTD/svg10.dtd">
<svg version="1.0" id="Layer_1" xmlns="http://www.w3.org/2000/svg" xmlns:xlink="http://www.w3.org/1999/xlink" x="0px" y="0px"
	 width="28px" height="26px" viewBox="2 3 28 26" enable-background="new 2 3 28 26" xml:space="preserve">
<path fill="#231F20" d="M29,3H3C2.448,3,2,3.448,2,4s0.448,1,1,1h25v16H15c-0.041,0-0.076,0.018-0.116,0.023
	c-0.067,0.008-0.13,0.018-0.195,0.039c-0.068,0.021-0.127,0.053-0.187,0.088c-0.033,0.02-0.071,0.025-0.102,0.05L8,26v-4
	c0-0.553-0.448-1-1-1H4V8c0-0.552-0.448-1-1-1S2,7.448,2,8v14c0,0.553,0.448,1,1,1h3v5c0,0.379,0.214,0.725,0.553,0.895
	C6.694,28.965,6.848,29,7,29c0.212,0,0.423-0.066,0.6-0.2l7.733-5.8H29c0.553,0,1-0.447,1-1V4C30,3.448,29.553,3,29,3z"/>
</svg>
