<?xml version="1.0" encoding="utf-8"?>
<!-- Generator: Adobe Illustrator 15.0.0, SVG Export Plug-In . SVG Version: 6.00 Build 0)  -->
<!DOCTYPE svg PUBLIC "-//W3C//DTD SVG 1.0//EN" "http://www.w3.org/TR/2001/REC-SVG-20010904/DTD/svg10.dtd">
<svg version="1.0" id="Layer_1" xmlns="http://www.w3.org/2000/svg" xmlns:xlink="http://www.w3.org/1999/xlink" x="0px" y="0px"
	 width="23.866px" height="23.866px" viewBox="0 0 23.866 23.866" enable-background="new 0 0 23.866 23.866" xml:space="preserve">
<path d="M15.087,11.933l8.56-8.559c0.293-0.293,0.293-0.768,0-1.061L21.554,0.22C21.413,0.079,21.223,0,21.023,0
	s-0.39,0.079-0.53,0.22l-8.56,8.56L3.373,0.22c-0.282-0.282-0.78-0.282-1.061,0L0.22,2.313c-0.293,0.293-0.293,0.768,0,1.061
	l8.56,8.559l-8.56,8.559c-0.293,0.293-0.293,0.768,0,1.061l2.093,2.094c0.141,0.141,0.331,0.22,0.53,0.22
	c0.199,0,0.39-0.079,0.53-0.22l8.561-8.56l8.56,8.56c0.141,0.141,0.331,0.22,0.53,0.22s0.39-0.079,0.53-0.22l2.093-2.094
	c0.293-0.293,0.293-0.768,0-1.061L15.087,11.933z"/>
</svg>
